<?xml version="1.0" encoding="UTF-8"?>
<svg version="1.1" xmlns="http://www.w3.org/2000/svg" viewBox="0 0 213 213">
<path d="M0 0 C1.3603627 1.15643736 2.69489109 2.34404822 4 3.5625 C4.67160156 4.18125 5.34320313 4.8 6.03515625 5.4375 C16.1192345 15.69644666 23.90247848 32.64002234 24.4375 47 C24.26987308 51.15044243 22.99250593 53.90957246 21 57.5625 C20.45151944 62.58908138 21.51776761 65.01016187 24.4375 69.0625 C25.51644531 70.61324219 25.51644531 70.61324219 26.6171875 72.1953125 C27.41135559 73.31778104 28.20563053 74.44017398 29 75.5625 C30.71489157 78.00317456 32.39657545 80.4632043 34.0625 82.9375 C34.46847412 83.50791016 34.87444824 84.07832031 35.29272461 84.66601562 C37.19975617 87.51593826 37.99575498 89.34282012 38.0625 92.796875 C37 95.5625 37 95.5625 34.71484375 97.2421875 C33.79832031 97.63664062 32.88179687 98.03109375 31.9375 98.4375 C31.01839844 98.84742187 30.09929687 99.25734375 29.15234375 99.6796875 C28.44207031 99.97101563 27.73179687 100.26234375 27 100.5625 C27.14308594 101.93535156 27.14308594 101.93535156 27.2890625 103.3359375 C27.39992187 104.52445312 27.51078125 105.71296875 27.625 106.9375 C27.74101562 108.12085938 27.85703125 109.30421875 27.9765625 110.5234375 C27.98429688 111.52632813 27.99203125 112.52921875 28 113.5625 C27.34 114.2225 26.68 114.8825 26 115.5625 C25.89953786 117.82508202 26.06781386 120.01500466 26.22265625 122.2734375 C26 124.5625 26 124.5625 24.49609375 126.328125 C21.93070589 130.15946143 22.88575088 134.74391683 23.1171875 139.1875 C23.27373002 144.10989256 22.74837904 147.28436282 20 151.5625 C13.71005565 156.27995826 5.83301475 154.80819239 -1.57421875 154.1875 C-2.37569336 154.1265918 -3.17716797 154.06568359 -4.00292969 154.00292969 C-5.60551575 153.87757699 -7.20672514 153.73288123 -8.80566406 153.56738281 C-12.30290008 153.29300062 -14.45497867 153.20381823 -17.43359375 155.1640625 C-19.29483561 158.01394405 -19.95779008 160.35145042 -20.625 163.6875 C-20.98271484 165.40066406 -20.98271484 165.40066406 -21.34765625 167.1484375 C-21.75841044 169.29813311 -22.16294919 171.44903478 -22.55859375 173.6015625 C-22.72488281 174.49617187 -22.89117187 175.39078125 -23.0625 176.3125 C-23.19785156 177.11171875 -23.33320313 177.9109375 -23.47265625 178.734375 C-23.64667969 179.33765625 -23.82070312 179.9409375 -24 180.5625 C-24.66 180.8925 -25.32 181.2225 -26 181.5625 C-24.44164415 158.24089859 -24.44164415 158.24089859 -17 151.5625 C-12.24029628 149.18264814 -5.6945934 150.49991931 -0.51171875 150.859375 C0.6784082 150.93889404 0.6784082 150.93889404 1.89257812 151.02001953 C3.48449255 151.1301944 5.07573265 151.25068046 6.66601562 151.38232422 C10.92880651 151.67799316 14.1791114 151.78478043 18 149.5625 C20.07163084 146.45505373 20.23410732 145.95109861 20.08984375 142.47265625 C20.06986328 141.68826172 20.04988281 140.90386719 20.02929688 140.09570312 C19.96823832 138.45231866 19.90315224 136.80907876 19.83398438 135.16601562 C19.7213857 130.43298857 19.88197724 128.28268059 23 124.5625 C23.14874232 121.96004111 23.14874232 121.96004111 22.6875 119.3125 C22.56761719 118.42046875 22.44773438 117.5284375 22.32421875 116.609375 C22.16373047 115.59617188 22.16373047 115.59617188 22 114.5625 C22.99 113.9025 23.98 113.2425 25 112.5625 C24.80470703 111.33273438 24.80470703 111.33273438 24.60546875 110.078125 C24.19338526 106.85848204 23.90466137 103.80834716 24 100.5625 C26.0625 98 26.0625 98 29 96.5625 C30.093125 95.985 31.18625 95.4075 32.3125 94.8125 C33.199375 94.4 34.08625 93.9875 35 93.5625 C34.49900431 88.74013861 33.19882918 85.8725666 30.40234375 81.9375 C29.32436523 80.38289063 29.32436523 80.38289063 28.22460938 78.796875 C26.69856655 76.63878199 25.16991405 74.482532 23.63867188 72.328125 C22.92130859 71.29171875 22.20394531 70.2553125 21.46484375 69.1875 C20.46892212 67.78371094 20.46892212 67.78371094 19.45288086 66.3515625 C17.76913129 63.11930657 17.60532555 61.15897872 18 57.5625 C18.96904791 55.8776487 19.96892408 54.2101226 21 52.5625 C23.56389 39.76292511 16.69651729 24.93822309 10.015625 14.3359375 C-1.45129318 -1.44218635 -16.47444619 -7.58888143 -35 -11.4375 C-35.66128906 -11.62957031 -36.32257813 -11.82164063 -37.00390625 -12.01953125 C-56.67187564 -16.13787318 -79.57891471 -8.80871176 -96 1.5625 C-110.90135387 11.71114388 -122.5479462 24.79641686 -126.52734375 42.90625 C-129.59975992 66.67303958 -123.50522608 85.27432746 -110.875 105.1875 C-100.92819039 121.2085471 -98.57609364 133.50763876 -102.734375 151.6875 C-108.06784035 174.29634779 -108.06784035 174.29634779 -111 179.5625 C-112.16526775 176.13090842 -111.81599441 173.95414157 -110.85546875 170.4921875 C-110.59056641 169.5125 -110.32566406 168.5328125 -110.05273438 167.5234375 C-109.76720703 166.50507813 -109.48167969 165.48671875 -109.1875 164.4375 C-105.13554308 150.05703628 -105.13554308 150.05703628 -103.625 135.25 C-103.58246094 133.52330078 -103.58246094 133.52330078 -103.5390625 131.76171875 C-104.27333689 120.64491701 -109.47614528 111.40037977 -115.375 102.25 C-127.26627617 83.15521749 -133.28159205 64.3332065 -129.31640625 41.65234375 C-128.39490434 38.50547207 -127.30300391 35.57006248 -126 32.5625 C-125.61070313 31.57507812 -125.22140625 30.58765625 -124.8203125 29.5703125 C-116.81089186 11.3239992 -99.04794366 -1.76405747 -81.07080078 -9.23974609 C-53.89039961 -19.7771007 -23.70803094 -17.3670414 0 0 Z " fill="#0F96CD" transform="translate(153,23.4375)"/>
<path d="M0 0 C-0.13664062 1.01835938 -0.27328125 2.03671875 -0.4140625 3.0859375 C-1.05325189 11.79969991 0.65952252 17.80054113 6.29394531 24.58691406 C13.12336628 31.85144235 18.71241401 35.86878572 28.84741211 36.5859375 C33.59352327 36.64250195 38.27747786 36.4774233 43 36 C43.28536621 35.39317383 43.57073242 34.78634766 43.86474609 34.16113281 C45.3821297 31.27255654 47.41800573 29.14616521 49.625 26.75 C50.44226563 25.85796875 51.25953125 24.9659375 52.1015625 24.046875 C52.72804688 23.37140625 53.35453125 22.6959375 54 22 C51.66975466 16.93029551 48.6990366 13.07844533 44 10 C38.99929571 8.75614433 34.13570633 8.2674847 29 8 C28.34 9.32 27.68 10.64 27 12 C24.69 11.67 22.38 11.34 20 11 C18.67438148 4.61292897 18.67438148 4.61292897 20.0625 2 C22 1 22 1 25.0625 1.0625 C26.031875 1.371875 27.00125 1.68125 28 2 C28.24621094 2.67804687 28.49242187 3.35609375 28.74609375 4.0546875 C29.15988281 4.69664063 29.57367188 5.33859375 30 6 C33.24804195 6.29015724 33.24804195 6.29015724 37 6.0625 C41.41426429 6.06614213 44.25585095 6.26954694 47.546875 9.5 C48.27390625 10.510625 49.0009375 11.52125 49.75 12.5625 C52.7603242 16.58876052 52.7603242 16.58876052 57.24023438 18.50048828 C62.24508825 18.87885214 67.20170113 18.58076017 72.1875 18.06103516 C74 18 74 18 76 19 C76 19.66 76 20.32 76 21 C72.80787156 21.6755324 70.27414538 22.0396268 67.02734375 21.5703125 C63.23702591 21.02404672 60.72400414 20.99406724 57 22 C52.25676427 25.72369681 48.64400249 30.67389568 45.10058594 35.50952148 C44 37 44 37 43 38 C23.39557208 40.66748773 23.39557208 40.66748773 15.86962891 36.94677734 C12.06435336 33.93349054 9.6716988 29.99761624 7 26 C5.46504352 24.69603212 3.9045068 23.4211685 2.3125 22.1875 C-0.94236859 19.07847074 -1.4304249 16.57667877 -1.53833008 12.09887695 C-1.48259063 9.04669836 -1.28497066 6.03968703 -1 3 C-8.88402231 9.0703974 -15.57651623 15.39008919 -22 23 C-22.57363281 23.58652344 -23.14726563 24.17304687 -23.73828125 24.77734375 C-25.71777989 28.26444817 -25.5729653 31.80346137 -25.6875 35.75 C-25.72166016 36.54277344 -25.75582031 37.33554688 -25.79101562 38.15234375 C-25.87319104 40.10107504 -25.93828045 42.05051362 -26 44 C-26.66 44 -27.32 44 -28 44 C-29.00494334 35.61532123 -29.68451444 28.23384891 -24.47094727 21.15087891 C-19.82773384 15.54511385 -14.70954344 10.51704386 -9 6 C-7.70596078 4.85684677 -6.41419985 3.7111081 -5.125 2.5625 C-2.24804178 0 -2.24804178 0 0 0 Z " fill="#0FA6E2" transform="translate(68,33)"/>
<path d="M0 0 C2.5625 0.1875 2.5625 0.1875 4.5625 2.1875 C4.00694444 6.74305556 4.00694444 6.74305556 2.5625 8.1875 C1.28227749 13.30839002 0.73658691 18.17980851 2.5625 23.1875 C6.8085909 29.13277088 12.4646782 33.92436549 18.00195312 38.63793945 C18.51693359 39.14929443 19.03191406 39.66064941 19.5625 40.1875 C19.5625 40.8475 19.5625 41.5075 19.5625 42.1875 C22.8625 42.1875 26.1625 42.1875 29.5625 42.1875 C29.6367212 48.64702852 29.69113632 55.10630816 29.72729492 61.56616211 C29.74237052 63.76314621 29.76283426 65.96010026 29.78881836 68.15698242 C29.82525502 71.31697 29.84223884 74.47655924 29.85546875 77.63671875 C29.87095261 78.61710617 29.88643646 79.59749359 29.90238953 80.60758972 C29.90362563 85.62947449 29.85312171 89.09984189 26.5625 93.1875 C25.9025 92.8575 25.2425 92.5275 24.5625 92.1875 C24.5625 90.8675 24.5625 89.5475 24.5625 88.1875 C25.5525 88.1875 26.5425 88.1875 27.5625 88.1875 C27.5625 73.3375 27.5625 58.4875 27.5625 43.1875 C24.5925 43.1875 21.6225 43.1875 18.5625 43.1875 C16.1796875 41.71875 16.1796875 41.71875 14.4375 39.6875 C13.79039063 38.96046875 13.14328125 38.2334375 12.4765625 37.484375 C11.84492187 36.72640625 11.21328125 35.9684375 10.5625 35.1875 C9.31334337 33.77008963 8.06338 32.35338971 6.8125 30.9375 C6.28140625 30.31359375 5.7503125 29.6896875 5.203125 29.046875 C3.57631294 27.09558119 3.57631294 27.09558119 1.375 25.4375 C-1.18726888 22.25675242 -0.87868427 19.32736453 -0.6875 15.4375 C-0.66945312 14.74011719 -0.65140625 14.04273437 -0.6328125 13.32421875 C-0.58588554 11.61138461 -0.51414605 9.89926176 -0.4375 8.1875 C-1.7575 7.5275 -3.0775 6.8675 -4.4375 6.1875 C-3.3735 0.2595 -3.3735 0.2595 0 0 Z " fill="#0E98D0" transform="translate(52.4375,57.8125)"/>
<path d="M0 0 C1.45599609 0.00580078 1.45599609 0.00580078 2.94140625 0.01171875 C4.45154297 0.04845703 4.45154297 0.04845703 5.9921875 0.0859375 C7.00667969 0.08722656 8.02117187 0.08851562 9.06640625 0.08984375 C16.58621125 0.17996125 16.58621125 0.17996125 18.8671875 2.4609375 C18.31163194 7.01649306 18.31163194 7.01649306 16.8671875 8.4609375 C15.69800781 8.40292969 14.52882812 8.34492187 13.32421875 8.28515625 C5.02300412 7.93810187 -1.02396526 8.3416858 -7.35473633 14.14575195 C-7.96212646 14.76538818 -8.5695166 15.38502441 -9.1953125 16.0234375 C-9.78401123 16.61922607 -10.37270996 17.21501465 -10.97924805 17.82885742 C-14.92868744 22.25737608 -15.91745809 25.55500605 -16.1328125 31.4609375 C-16.7928125 31.4609375 -17.4528125 31.4609375 -18.1328125 31.4609375 C-19.75714507 25.57459469 -19.75714507 25.57459469 -18.17089844 22.74511719 C-16.6952861 21.00818769 -15.14748094 19.41880449 -13.5078125 17.8359375 C-12.97285156 17.289375 -12.43789062 16.7428125 -11.88671875 16.1796875 C-10.82248202 15.09732509 -9.7435868 14.02916996 -8.65014648 12.97631836 C-6.92546118 11.30586855 -6.92546118 11.30586855 -4.81640625 8.61328125 C-0.96297023 5.52267973 2.36958342 5.68260556 7.1796875 5.6484375 C8.43362305 5.61073242 8.43362305 5.61073242 9.71289062 5.57226562 C11.76382159 5.5136676 13.81555343 5.48437257 15.8671875 5.4609375 C15.8671875 4.8009375 15.8671875 4.1409375 15.8671875 3.4609375 C7.97522659 1.94971094 0.16721173 0.92749991 -7.02685547 5.16601562 C-14.59461875 10.96524665 -23.50113839 18.65768044 -25.60546875 28.3515625 C-26.02287082 32.12919546 -25.78239937 35.71009721 -25.1328125 39.4609375 C-25.7928125 39.4609375 -26.4528125 39.4609375 -27.1328125 39.4609375 C-28.31469737 33.69742487 -29.02678222 28.1395239 -27.1328125 22.4609375 C-22.86890238 16.18004867 -16.9844101 11.19487624 -11.23925781 6.29760742 C-9.0717199 4.48749424 -9.0717199 4.48749424 -7.18310547 2.2565918 C-4.62299449 0.01443697 -3.36140875 -0.03110721 0 0 Z " fill="#0D91C7" transform="translate(134.1328125,63.5390625)"/>
<path d="M0 0 C5.94 0 11.88 0 18 0 C18 0.66 18 1.32 18 2 C16.81921875 2.02578125 15.6384375 2.0515625 14.421875 2.078125 C12.86454677 2.13441397 11.30725653 2.19176114 9.75 2.25 C8.97269531 2.26417969 8.19539063 2.27835938 7.39453125 2.29296875 C3.76239072 2.44818843 1.5750057 2.62114111 -1.5078125 4.65234375 C-4.50305371 9.36475204 -3.79072754 14.65934842 -3 20 C-2.14628438 22.60341001 -1.33851362 23.97728896 0.6015625 25.8984375 C6.16449024 28.4533978 13.02358058 27.44716677 19 27 C19.33 26.34 19.66 25.68 20 25 C22.375 24.875 22.375 24.875 25 25 C25.66 25.66 26.32 26.32 27 27 C26.625 29.625 26.625 29.625 26 32 C23.625 32.625 23.625 32.625 21 33 C20.34 32.34 19.68 31.68 19 31 C17.19721295 30.94789633 15.39322598 30.90535642 13.58984375 30.92919922 C7.31269762 30.95340781 2.45283066 30.61462305 -2.5 26.375 C-6.90799933 21.1310008 -6.9243844 15.87894968 -6.8046875 9.35546875 C-5.82083834 5.25291326 -4.43482281 4.29523207 -1 2 C-0.67 1.34 -0.34 0.68 0 0 Z " fill="#1095CB" transform="translate(81,25)"/>
<path d="M0 0 C0.33 0.33 0.66 0.66 1 1 C4.15215924 1.16926869 7.29682462 1.29730016 10.453125 1.34179688 C13.55652264 1.47160825 15.52799918 1.60112607 17.94140625 3.640625 C20.12921955 8.51678453 19.83502368 13.80575824 19 19 C17.22772277 21.72074364 15.93784439 22.41356403 13 24 C12.34 24 11.68 24 11 24 C11 30.6 11 37.2 11 44 C10.67 44 10.34 44 10 44 C9.8251064 40.60482186 9.71896235 37.21080513 9.625 33.8125 C9.57472656 32.85279297 9.52445313 31.89308594 9.47265625 30.90429688 C9.3249087 23.78779006 9.3249087 23.78779006 11.34692383 21.42822266 C11.8911499 21.02780762 12.43537598 20.62739258 12.99609375 20.21484375 C16.29820699 18.29914987 16.29820699 18.29914987 16.62109375 14.921875 C16.56050781 13.87515625 16.49992187 12.8284375 16.4375 11.75 C16.39496094 10.69296875 16.35242188 9.6359375 16.30859375 8.546875 C16.2739957 6.06835646 16.2739957 6.06835646 15 5 C12.69006618 4.87442838 10.37581464 4.82424271 8.0625 4.8125 C6.16177734 4.79123047 6.16177734 4.79123047 4.22265625 4.76953125 C0.91056001 4.65286303 0.91056001 4.65286303 -1 7 C-2.32 7 -3.64 7 -5 7 C-5.33 4.69 -5.66 2.38 -6 0 C-3.49749232 -1.25125384 -2.59701335 -0.83774624 0 0 Z " fill="#0B89BF" transform="translate(80,87)"/>
<path d="M0 0 C2.5625 0.1875 2.5625 0.1875 4.5625 2.1875 C4.830625 2.950625 5.09875 3.71375 5.375 4.5 C6.93070037 8.02079558 8.49156288 9.85091741 11.5625 12.1875 C14.28591446 12.51159155 16.80648291 12.32304182 19.5625 12.1875 C21.5625 14.1875 21.5625 14.1875 21.8125 16.6875 C21.5625 19.1875 21.5625 19.1875 19.5625 21.1875 C17.0625 21.4375 17.0625 21.4375 14.5625 21.1875 C12.5625 19.1875 12.5625 19.1875 11.875 16.9375 C9.44815404 11.85267989 5.27972987 8.87439195 0.125 6.8125 C-0.720625 6.60625 -1.56625 6.4 -2.4375 6.1875 C-2.81968767 4.53135343 -3.15145102 2.86292976 -3.4375 1.1875 C-2.4375 0.1875 -2.4375 0.1875 0 0 Z " fill="#0F9CD4" transform="translate(50.4375,105.8125)"/>
<path d="M0 0 C0.969375 0.309375 1.93875 0.61875 2.9375 0.9375 C3.17855469 1.61039063 3.41960937 2.28328125 3.66796875 2.9765625 C4.08691406 3.62367187 4.50585938 4.27078125 4.9375 4.9375 C8.31558614 5.3811863 8.31558614 5.3811863 12.1875 5.25 C19.10439077 5.36062436 19.10439077 5.36062436 22.26171875 7.546875 C23.69727885 9.28484122 24.89115369 10.94371573 25.9375 12.9375 C24.9475 12.9375 23.9575 12.9375 22.9375 12.9375 C22.37546875 12.30328125 21.8134375 11.6690625 21.234375 11.015625 C18.15147043 8.22633039 15.16894705 8.04876552 11.1875 7.6875 C10.49011719 7.61015625 9.79273437 7.5328125 9.07421875 7.453125 C7.36361567 7.26566165 5.65070729 7.09944497 3.9375 6.9375 C3.2775 8.2575 2.6175 9.5775 1.9375 10.9375 C-0.3725 10.6075 -2.6825 10.2775 -5.0625 9.9375 C-6.38811852 3.55042897 -6.38811852 3.55042897 -5 0.9375 C-3.0625 -0.0625 -3.0625 -0.0625 0 0 Z " fill="#10A1DA" transform="translate(93.0625,34.0625)"/>
<path d="M0 0 C-2.6774725 2.6774725 -5.18934958 3.09421156 -8.8125 4.1875 C-29.10576241 10.68650617 -46.28923432 23.32037978 -56.22265625 42.41796875 C-56.60744141 43.20107422 -56.60744141 43.20107422 -57 44 C-57.91799278 41.53358568 -58.1960934 40.43822612 -57.1015625 37.9921875 C-45.02586407 20.67729716 -23.06621788 -0.62341129 0 0 Z " fill="#0F9DD6" transform="translate(87,11)"/>
<path d="M0 0 C1.66725506 0.33037773 3.33376923 0.66449455 5 1 C7.36262962 1.13425605 9.72801394 1.22348917 12.09375 1.28125 C13.09746643 1.30886414 13.09746643 1.30886414 14.12145996 1.33703613 C16.2475561 1.3954297 18.37372885 1.4483985 20.5 1.5 C23.30223945 1.56800626 26.10424729 1.64166161 28.90625 1.71875 C30.14697266 1.74904297 31.38769531 1.77933594 32.66601562 1.81054688 C35.55630803 1.97478728 38.1878007 2.34034831 41 3 C41 3.33 41 3.66 41 4 C29.12 4 17.24 4 5 4 C5 4.66 5 5.32 5 6 C1.25 7.125 1.25 7.125 -1 6 C-1.042721 4.33388095 -1.04063832 2.66617115 -1 1 C-0.67 0.67 -0.34 0.34 0 0 Z " fill="#0D9CD4" transform="translate(65,75)"/>
<path d="M0 0 C0 0.99 0 1.98 0 3 C-1.635831 4.04968315 -3.31059793 5.03890769 -5 6 C-8.66319674 9.03666378 -12.12027359 12.25078563 -15.52832031 15.56982422 C-16.84271954 16.84715512 -18.18154519 18.09923941 -19.5234375 19.34765625 C-26.46268175 26.65014614 -26.17760674 34.43143702 -26 44 C-26.66 44 -27.32 44 -28 44 C-29.00494334 35.61532123 -29.68451444 28.23384891 -24.47094727 21.15087891 C-19.82773384 15.54511385 -14.70954344 10.51704386 -9 6 C-7.70596078 4.85684677 -6.41419985 3.7111081 -5.125 2.5625 C-2.24804178 0 -2.24804178 0 0 0 Z " fill="#0F9ED9" transform="translate(68,33)"/>
<path d="M0 0 C0.33 0 0.66 0 1 0 C0.54939699 4.13052758 0.01464164 8.06777063 -1.02734375 12.08984375 C-2.24023107 17.4522859 -2.25867101 22.64857841 -2.1875 28.125 C-2.18685547 29.07503906 -2.18621094 30.02507812 -2.18554688 31.00390625 C-2.16003554 35.09138857 -2.06919588 39.02357088 -1.36328125 43.0546875 C-1.24339844 44.02664062 -1.12351562 44.99859375 -1 46 C-1.66 46.66 -2.32 47.32 -3 48 C-4.64020967 41.01353727 -5.38575161 34.36008793 -5.375 27.1875 C-5.37584595 25.75216919 -5.37584595 25.75216919 -5.37670898 24.2878418 C-5.25725392 16.56242828 -3.95404885 10.17750824 -1 3 C-0.67 2.01 -0.34 1.02 0 0 Z " fill="#0E8FC6" transform="translate(28,53)"/>
<path d="M0 0 C2 1 2 1 2.83203125 3.16796875 C3.15558594 4.16441406 3.47914062 5.16085938 3.8125 6.1875 C6.69733207 14.03389566 10.9130961 20.93685037 15.27856445 28.04370117 C24 42.3199139 24 42.3199139 24 47 C23.34 47 22.68 47 22 47 C21.67890259 46.09773682 21.67890259 46.09773682 21.35131836 45.17724609 C18.81917326 38.42963637 15.48313826 32.65018466 11.5625 26.625 C0 8.40944232 0 8.40944232 0 0 Z " fill="#0E9CD4" transform="translate(26,99)"/>
<path d="M0 0 C-3.99534953 2.25931333 -5.80118524 1.83549146 -10.25 0.625 C-21.12759337 -1.93310208 -31.90794097 -1.52611074 -42.9609375 -0.0234375 C-43.63382812 -0.01570312 -44.30671875 -0.00796875 -45 0 C-45.66 -0.66 -46.32 -1.32 -47 -2 C-30.23692343 -5.11871192 -16.43503498 -3.70366985 0 0 Z " fill="#0D88BB" transform="translate(132,12)"/>
<path d="M0 0 C0.33 0 0.66 0 1 0 C1.32287543 5.38125715 0.41720471 8.26630745 -2 13 C-2.55974622 18.0727001 -1.43496519 20.52733706 1.5 24.625 C2.22058594 25.65753906 2.94117188 26.69007812 3.68359375 27.75390625 C4.44800781 28.82511719 5.21242187 29.89632812 6 31 C7.53723777 33.17706449 9.05282817 35.36588756 10.5625 37.5625 C11.24441406 38.53316406 11.92632812 39.50382812 12.62890625 40.50390625 C13.08136719 41.32761719 13.53382813 42.15132812 14 43 C13.67 43.99 13.34 44.98 13 46 C10.41860004 42.27665094 7.85594703 38.54133417 5.30957031 34.79394531 C4.44151829 33.52196751 3.56851541 32.2533533 2.69042969 30.98828125 C1.42614711 29.16496216 0.18040015 27.33012703 -1.0625 25.4921875 C-1.45622803 24.93256317 -1.84995605 24.37293884 -2.25561523 23.7963562 C-4.75277223 20.053761 -5.48925263 17.47208106 -5 13 C-4.16015625 10.83984375 -4.16015625 10.83984375 -3.0625 8.9375 C-1.44245478 5.95501392 -0.42626158 3.41009266 0 0 Z " fill="#0F9FD7" transform="translate(176,68)"/>
<path d="M0 0 C0 0.33 0 0.66 0 1 C-1.03640625 1.02578125 -2.0728125 1.0515625 -3.140625 1.078125 C-4.51045801 1.13441951 -5.88024805 1.19176655 -7.25 1.25 C-8.27287109 1.27126953 -8.27287109 1.27126953 -9.31640625 1.29296875 C-12.58220292 1.45150257 -14.68026232 1.77670779 -17.3828125 3.6640625 C-19.333741 6.48207033 -19.95355284 8.76776419 -20.625 12.125 C-20.86347656 13.26710937 -21.10195312 14.40921875 -21.34765625 15.5859375 C-21.75841044 17.73563311 -22.16294919 19.88653478 -22.55859375 22.0390625 C-22.72488281 22.93367188 -22.89117187 23.82828125 -23.0625 24.75 C-23.19785156 25.54921875 -23.33320313 26.3484375 -23.47265625 27.171875 C-23.64667969 27.77515625 -23.82070312 28.3784375 -24 29 C-24.66 29.33 -25.32 29.66 -26 30 C-24.44164415 6.67839859 -24.44164415 6.67839859 -17 0 C-12.2418865 -2.37905675 -5.00367323 -1.33431286 0 0 Z " fill="#0F9AD0" transform="translate(153,175)"/>
<path d="M0 0 C3.17690658 1.17663207 4.12203188 2.17407489 6.125 5.03125 C8.25081048 7.64382433 9.63510033 8.44891025 12.98828125 8.8046875 C14.42891715 8.85731347 15.87091242 8.88015313 17.3125 8.875 C18.05306641 8.895625 18.79363281 8.91625 19.55664062 8.9375 C21.37060942 8.9843121 23.18543229 8.99573545 25 9 C26.53271273 13.58798777 25.02911182 15.77944742 23 20 C21.68 19.67 20.36 19.34 19 19 C19 18.01 19 17.02 19 16 C19.99 16 20.98 16 22 16 C22.66 14.35 23.32 12.7 24 11 C22.92621094 11.0928125 21.85242188 11.185625 20.74609375 11.28125 C9.48365273 11.96146076 9.48365273 11.96146076 5.4140625 9.32421875 C2.81928961 6.32982894 1.25397761 3.76193282 0 0 Z " fill="#0F99D4" transform="translate(106,25)"/>
<path d="M0 0 C0.88816406 0.01804687 1.77632812 0.03609375 2.69140625 0.0546875 C4.87870848 0.10172626 7.06379816 0.16742991 9.25 0.25 C9.25 0.58 9.25 0.91 9.25 1.25 C8.18523437 1.15976563 7.12046875 1.06953125 6.0234375 0.9765625 C-2.05693767 0.65577909 -7.77647757 1.30861391 -13.90380859 6.93701172 C-14.51305176 7.55592285 -15.12229492 8.17483398 -15.75 8.8125 C-16.34248535 9.40820801 -16.9349707 10.00391602 -17.54541016 10.61767578 C-21.53410628 15.04758361 -22.54011413 18.31416527 -22.75 24.25 C-23.41 24.25 -24.07 24.25 -24.75 24.25 C-26.38221504 18.36955404 -26.38221504 18.36955404 -24.77197266 15.51806641 C-23.2805698 13.76612039 -21.7175251 12.16065139 -20.0625 10.5625 C-19.51916016 10.00755859 -18.97582031 9.45261719 -18.41601562 8.88085938 C-17.35357652 7.80043461 -16.27612855 6.73453231 -15.18310547 5.68505859 C-13.60260461 4.16960622 -13.60260461 4.16960622 -11.96484375 1.87109375 C-8.31269078 -0.80199881 -4.3875528 -0.16850277 0 0 Z " fill="#0F9DD7" transform="translate(140.75,70.75)"/>
<path d="M0 0 C12.01502426 0.92423264 21.15090045 4.79213955 30 13 C30.7528125 13.680625 31.505625 14.36125 32.28125 15.0625 C34 17 34 17 34 20 C32.125 19.75 32.125 19.75 30 19 C29.71511719 18.40703125 29.43023437 17.8140625 29.13671875 17.203125 C26.27676853 11.66012869 20.27558292 7.90075157 14.625 5.6640625 C12.42210046 4.99818605 10.20739859 4.36952899 7.98046875 3.7890625 C5.20145252 3.05333343 2.64237162 2.12337426 0 1 C0 0.67 0 0.34 0 0 Z " fill="#0F99D1" transform="translate(116,25)"/>
<path d="M0 0 C2.5625 0.1875 2.5625 0.1875 4.5625 2.1875 C4.1875 4.8125 4.1875 4.8125 3.5625 7.1875 C2.5725 7.5175 1.5825 7.8475 0.5625 8.1875 C0.5625 12.8075 0.5625 17.4275 0.5625 22.1875 C0.2325 22.1875 -0.0975 22.1875 -0.4375 22.1875 C-0.4375 17.5675 -0.4375 12.9475 -0.4375 8.1875 C-1.7575 7.5275 -3.0775 6.8675 -4.4375 6.1875 C-3.3735 0.2595 -3.3735 0.2595 0 0 Z " fill="#0F9BD3" transform="translate(52.4375,57.8125)"/>
<path d="M0 0 C2.0859375 -0.37890625 2.0859375 -0.37890625 5 0 C7.49262385 1.74145374 9.52494163 3.87374054 11.625 6.0625 C12.19734375 6.62388672 12.7696875 7.18527344 13.359375 7.76367188 C16.18426318 10.63783136 18.2108191 13.07986852 19.63671875 16.875 C20.62904515 20.11159275 20.62904515 20.11159275 23.04296875 20.90234375 C26.02148438 20.95117188 26.02148438 20.95117188 29 21 C29 21.66 29 22.32 29 23 C25.7 23 22.4 23 19 23 C16 16.375 16 16.375 16 13 C15.41089844 12.75378906 14.82179688 12.50757812 14.21484375 12.25390625 C10.9632968 10.41308337 9.15033171 7.69172491 6.87890625 4.77734375 C4.62426428 2.64457432 3.0401795 2.33895655 0 2 C0 1.34 0 0.68 0 0 Z " fill="#0E98CF" transform="translate(45,89)"/>
<path d="M0 0 C2.375 -0.125 2.375 -0.125 5 0 C5.66 0.66 6.32 1.32 7 2 C6.625 4.625 6.625 4.625 6 7 C3.625 7.625 3.625 7.625 1 8 C0.34 7.34 -0.32 6.68 -1 6 C-3.55867474 5.5342637 -6.04687908 5.16515752 -8.625 4.875 C-9.33140625 4.78863281 -10.0378125 4.70226563 -10.765625 4.61328125 C-12.50950141 4.40118817 -14.2546484 4.19959009 -16 4 C-16 3.67 -16 3.34 -16 3 C-14.92878906 2.95101562 -13.85757813 2.90203125 -12.75390625 2.8515625 C-11.35674361 2.77654706 -9.9596095 2.7009987 -8.5625 2.625 C-7.85544922 2.5940625 -7.14839844 2.563125 -6.41992188 2.53125 C-4.60760812 2.42719371 -2.80182012 2.22080108 -1 2 C-0.67 1.34 -0.34 0.68 0 0 Z " fill="#0B79A7" transform="translate(101,50)"/>
<path d="M0 0 C0.33 1.32 0.66 2.64 1 4 C-6.61069983 10.03607228 -16.03081771 8.24538278 -25.19921875 7.21875 C-25.79347656 7.1465625 -26.38773438 7.074375 -27 7 C-27 6.67 -27 6.34 -27 6 C-14.2007051 4.92216464 -14.2007051 4.92216464 -10 5.0625 C-6.8018571 4.99587202 -4.80373152 4.52202568 -2 3 C-1.34 2.01 -0.68 1.02 0 0 Z " fill="#0C82AF" transform="translate(173,170)"/>
<path d="M0 0 C0.33 1.65 0.66 3.3 1 5 C-2.17483445 7.1165563 -2.66699005 7.22929149 -6.23046875 6.9765625 C-7.03291016 6.925 -7.83535156 6.8734375 -8.66210938 6.8203125 C-9.91217773 6.72363281 -9.91217773 6.72363281 -11.1875 6.625 C-12.4549707 6.53992188 -12.4549707 6.53992188 -13.74804688 6.453125 C-15.83271217 6.31179176 -17.91646866 6.1571675 -20 6 C-20 5.67 -20 5.34 -20 5 C-14.06 4.67 -8.12 4.34 -2 4 C-2 3.34 -2 2.68 -2 2 C-8.27 1.67 -14.54 1.34 -21 1 C-21 0.67 -21 0.34 -21 0 C-18.43788925 -0.19569589 -15.87567609 -0.38180612 -13.3125 -0.5625 C-12.59126953 -0.61857422 -11.87003906 -0.67464844 -11.12695312 -0.73242188 C-7.22685936 -0.99955159 -3.78888972 -1.00887596 0 0 Z " fill="#0C7CAC" transform="translate(152,65)"/>
<path d="M0 0 C0.84046875 0.01804688 1.6809375 0.03609375 2.546875 0.0546875 C4.61507395 0.10169202 6.68268441 0.17343276 8.75 0.25 C8.75 0.58 8.75 0.91 8.75 1.25 C7.73421875 1.18296875 6.7184375 1.1159375 5.671875 1.046875 C-0.58975389 0.88896111 -5.99529549 0.79144156 -10.984375 4.98828125 C-13.98123333 7.88078004 -16.65697068 10.99398023 -19.25 14.25 C-19.91 13.59 -20.57 12.93 -21.25 12.25 C-18.58333333 9.58333333 -15.91666667 6.91666667 -13.25 4.25 C-12.693125 3.5075 -12.13625 2.765 -11.5625 2 C-7.94888732 -0.73462581 -4.39464854 -0.1785326 0 0 Z " fill="#0E9ED7" transform="translate(138.25,63.75)"/>
<path d="M0 0 C0.33 0 0.66 0 1 0 C1.91460833 10.61961891 1.91460833 10.61961891 -0.265625 13.91015625 C-2.41238154 15.69738317 -4.13981359 17 -7 17 C-7 23.6 -7 30.2 -7 37 C-7.33 37 -7.66 37 -8 37 C-8.1748936 33.60482186 -8.28103765 30.21080513 -8.375 26.8125 C-8.42527344 25.85279297 -8.47554688 24.89308594 -8.52734375 23.90429688 C-8.67209844 16.93194602 -8.67209844 16.93194602 -6.70800781 14.20849609 C-4.57682943 12.37205515 -2.8887565 11 0 11 C0 7.37 0 3.74 0 0 Z " fill="#10AEEB" transform="translate(98,94)"/>
<path d="M0 0 C4.88813328 0.56630812 8.61672582 2.03913802 13 4.25 C14.175625 4.83265625 15.35125 5.4153125 16.5625 6.015625 C20.13110259 8.07568195 22.92396425 10.28033425 26 13 C25.34 13.66 24.68 14.32 24 15 C22.7625 13.7315625 22.7625 13.7315625 21.5 12.4375 C17.04760034 8.5485783 11.84467228 6.5502248 6.42382812 4.36108398 C1.09310768 2.18621536 1.09310768 2.18621536 0 0 Z " fill="#0F9CD3" transform="translate(130,13)"/>
<path d="M0 0 C1.67542976 0.28604898 3.34385343 0.61781233 5 1 C5.625 2.875 5.625 2.875 6 5 C5.34 5.66 4.68 6.32 4 7 C1.375 6.625 1.375 6.625 -1 6 C-1.042721 4.33388095 -1.04063832 2.66617115 -1 1 C-0.67 0.67 -0.34 0.34 0 0 Z " fill="#042638" transform="translate(90,36)"/>
<path d="M0 0 C2.58445773 -0.1081866 5.16437352 -0.18737237 7.75 -0.25 C8.47960937 -0.28351562 9.20921875 -0.31703125 9.9609375 -0.3515625 C13.67144375 -0.41902625 15.57156961 -0.34327652 18.515625 2.015625 C19.00546875 2.67046875 19.4953125 3.3253125 20 4 C18.35 4 16.7 4 15 4 C15 3.34 15 2.68 15 2 C10.38 2 5.76 2 1 2 C0.67 1.34 0.34 0.68 0 0 Z " fill="#042132" transform="translate(84,55)"/>
<path d="M0 0 C0.74958984 0.01353516 1.49917969 0.02707031 2.27148438 0.04101562 C4.11879767 0.07631461 5.96574066 0.13012083 7.8125 0.1875 C5.95703125 1.7109375 5.95703125 1.7109375 3.8125 3.1875 C2.1347433 2.91543135 0.46799531 2.57249891 -1.1875 2.1875 C-6.51017501 2.4726433 -9.29768073 3.53342735 -13.1875 7.1875 C-10.14108114 0.39164255 -7.29585064 -0.24850496 0 0 Z " fill="#041E2E" transform="translate(90.1875,26.8125)"/>
<path d="M0 0 C0.33 0 0.66 0 1 0 C1.06058594 1.07378906 1.12117188 2.14757812 1.18359375 3.25390625 C1.26807651 4.69011315 1.35272054 6.12631058 1.4375 7.5625 C1.47681641 8.26697266 1.51613281 8.97144531 1.55664062 9.69726562 C1.76452434 13.1673246 2.07851963 16.46414855 2.66015625 19.90234375 C2.77230469 20.92457031 2.88445313 21.94679688 3 23 C2.34 23.66 1.68 24.32 1 25 C-1.4348809 16.44773237 -0.86252888 8.74184675 0 0 Z " fill="#0C80B1" transform="translate(24,76)"/>
<path d="M0 0 C1.67542976 0.28604898 3.34385343 0.61781233 5 1 C5 2.65 5 4.3 5 6 C1.25 7.125 1.25 7.125 -1 6 C-1.042721 4.33388095 -1.04063832 2.66617115 -1 1 C-0.67 0.67 -0.34 0.34 0 0 Z " fill="#0B8AC1" transform="translate(65,75)"/>
<path d="M0 0 C5.09974947 1.34993368 8.19497536 4.67197229 11 9 C11 9.99 11 10.98 11 12 C6.97847153 10.65949051 6.29726746 8.48070827 4 5 C2.68441297 3.97676564 1.35622245 2.96873032 0 2 C0 1.34 0 0.68 0 0 Z " fill="#0F99D0" transform="translate(58,53)"/>
<path d="M0 0 C1.70840281 1.63412443 2.93453047 2.86906094 4 5 C5.89533342 5.46523063 5.89533342 5.46523063 8.0625 5.625 C9.361875 5.74875 10.66125 5.8725 12 6 C12 6.66 12 7.32 12 8 C8.7 8 5.4 8 2 8 C0.74335022 5.09399739 0 3.20395416 0 0 Z " fill="#0FA3DB" transform="translate(62,104)"/>
<path d="M0 0 C0.66 0.66 1.32 1.32 2 2 C-1.3 5.96 -4.6 9.92 -8 14 C-8.66 13.34 -9.32 12.68 -10 12 C-9.44570313 11.38511719 -8.89140625 10.77023438 -8.3203125 10.13671875 C-7.59585938 9.32847656 -6.87140625 8.52023438 -6.125 7.6875 C-5.40570313 6.88699219 -4.68640625 6.08648437 -3.9453125 5.26171875 C-1.88394498 2.95810917 -1.88394498 2.95810917 0 0 Z " fill="#1095CC" transform="translate(51,46)"/>
<path d="M0 0 C2.475 0.99 2.475 0.99 5 2 C4.6875 3.9375 4.6875 3.9375 4 6 C3.01 6.33 2.02 6.66 1 7 C0.34 6.34 -0.32 5.68 -1 5 C-0.625 2.375 -0.625 2.375 0 0 Z " fill="#0972A3" transform="translate(48,106)"/>
<path d="M0 0 C0.66 0.66 1.32 1.32 2 2 C0.42210402 3.15330947 -1.1625482 4.29737927 -2.75 5.4375 C-3.63171875 6.07558594 -4.5134375 6.71367187 -5.421875 7.37109375 C-7.72699125 8.8275081 -9.34349572 9.55931821 -12 10 C-8.29909479 6.0747975 -4.45040344 3.05419844 0 0 Z " fill="#0E94CB" transform="translate(57,22)"/>
<path d="M0 0 C0.66 0.66 1.32 1.32 2 2 C-0.97 5.3 -3.94 8.6 -7 12 C-7.66 11.34 -8.32 10.68 -9 10 C-6.03 6.7 -3.06 3.4 0 0 Z " fill="#0D94CC" transform="translate(120,57)"/>
<path d="M0 0 C1.65 0.33 3.3 0.66 5 1 C4.67 2.32 4.34 3.64 4 5 C2.35 5 0.7 5 -1 5 C-0.67 3.35 -0.34 1.7 0 0 Z " fill="#043048" transform="translate(66,120)"/>
<path d="M0 0 C0.66 0 1.32 0 2 0 C3.14819277 5.8685408 2.77313045 11.0885256 2 17 C1.67 17 1.34 17 1 17 C0.67 11.39 0.34 5.78 0 0 Z " fill="#0B74A1" transform="translate(49,146)"/>
<path d="M0 0 C2.32749345 3.49124017 2.50299316 4.89222251 2 9 C0 11.375 0 11.375 -2 13 C-2 12.34 -2 11.68 -2 11 C-2.66 10.67 -3.32 10.34 -4 10 C-3.01 9.34 -2.02 8.68 -1 8 C-0.83333333 5 -0.83333333 5 -1 2 C-0.67 1.34 -0.34 0.68 0 0 Z " fill="#0E8FC2" transform="translate(179,128)"/>
<path d="M0 0 C1.07571119 1.00690237 2.14261819 2.02364056 3.1875 3.0625 C2.5275 3.7225 1.8675 4.3825 1.1875 5.0625 C0.465625 4.258125 -0.25625 3.45375 -1 2.625 C-3.83765689 0.03957928 -5.08416147 -0.61792813 -8.8125 -0.9375 C-8.8125 -1.2675 -8.8125 -1.5975 -8.8125 -1.9375 C-4.73883118 -3.66572314 -3.14663999 -2.73092536 0 0 Z " fill="#0D8EC4" transform="translate(115.8125,42.9375)"/>
<path d="M0 0 C1.98 0.495 1.98 0.495 4 1 C3.67 2.65 3.34 4.3 3 6 C1.68 6 0.36 6 -1 6 C-1 5.34 -1 4.68 -1 4 C-0.01 4 0.98 4 2 4 C2 3.34 2 2.68 2 2 C1.34 2 0.68 2 0 2 C0 1.34 0 0.68 0 0 Z " fill="#0E98D1" transform="translate(149,51)"/>
<path d="M0 0 C3.875 0.875 3.875 0.875 5 2 C5.04063832 3.66617115 5.042721 5.33388095 5 7 C3.35 7 1.7 7 0 7 C0.66 6.34 1.32 5.68 2 5 C2 4.01 2 3.02 2 2 C1.34 1.34 0.68 0.68 0 0 Z " fill="#10A3E2" transform="translate(50,106)"/>
<path d="M0 0 C0.33 1.32 0.66 2.64 1 4 C-0.32 4.99 -1.64 5.98 -3 7 C-4.32 6.34 -5.64 5.68 -7 5 C-6.21625 4.731875 -5.4325 4.46375 -4.625 4.1875 C-1.71885077 3.15185568 -1.71885077 3.15185568 0 0 Z " fill="#0D8DBF" transform="translate(173,170)"/>
<path d="M0 0 C0.99 0 1.98 0 3 0 C3 1.65 3 3.3 3 5 C1.68 4.67 0.36 4.34 -1 4 C-0.67 2.68 -0.34 1.36 0 0 Z " fill="#0F91CA" transform="translate(39,90)"/>
<path d="M0 0 C1.98 0.495 1.98 0.495 4 1 C4 1.99 4 2.98 4 4 C2.35 4 0.7 4 -1 4 C-0.67 2.68 -0.34 1.36 0 0 Z " fill="#043754" transform="translate(51,60)"/>
<path d="M0 0 C0.66 0 1.32 0 2 0 C2 4.62 2 9.24 2 14 C1.67 14 1.34 14 1 14 C0.83165067 12.22932584 0.66538091 10.45845388 0.5 8.6875 C0.4071875 7.70136719 0.314375 6.71523438 0.21875 5.69921875 C0 3 0 3 0 0 Z " fill="#075378" transform="translate(65,36)"/>
<path d="M0 0 C0 0.99 0 1.98 0 3 C-0.66 3 -1.32 3 -2 3 C-2.28875 3.639375 -2.5775 4.27875 -2.875 4.9375 C-4 7 -4 7 -6 8 C-5.65120368 4.74456771 -4.97866739 3.98126893 -2.4375 1.75 C-1.633125 1.1725 -0.82875 0.595 0 0 Z " fill="#051E2B" transform="translate(98,106)"/>
</svg>
